<svg version="1.1" id="Layer_1" xmlns="http://www.w3.org/2000/svg" xmlns:xlink="http://www.w3.org/1999/xlink" x="0px" y="0px" viewBox="0 0 48 48" enable-background="new 0 0 48 48" xml:space="preserve">
<circle fill="#CFD8DC" cx="24" cy="24" r="19"></circle>
<circle fill="#448AFF" cx="24" cy="24" r="17"></circle>
<polygon fill="#FF3D00" points="21.9,21.9 26.1,26.1 35.3,12.7 "></polygon>
<polygon fill="#BF360C" points="24,24 35.3,12.7 26.1,26.1 "></polygon>
<polygon fill="#FFFFFF" points="21.9,21.9 12.7,35.3 26.1,26.1 "></polygon>
<polygon fill="#BDBDBD" points="24,24 12.7,35.3 26.1,26.1 "></polygon>
<path fill="#BBDEFB" d="M17.1,10.7c0.6-0.3,1.2-0.6,1.8-0.8l1.2,2.7l-1.8,0.8L17.1,10.7z M36,25h2.9c0-0.3,0.1-0.7,0.1-1
	s0-0.7-0.1-1H36V25z M12.7,14.1l2.1,2.1l1.4-1.4l-2.1-2.1C13.6,13.2,13.2,13.6,12.7,14.1z M25,9.1C24.7,9,24.3,9,24,9s-0.7,0-1,0.1
	V12h2V9.1z M30.4,10.5c-0.6-0.3-1.2-0.5-1.9-0.7l-1.1,2.8l1.9,0.7L30.4,10.5z M12.5,20.5l0.7-1.9l-2.7-1.1c-0.3,0.6-0.5,1.2-0.7,1.9
	L12.5,20.5z M12,23H9.1C9,23.3,9,23.7,9,24s0,0.7,0.1,1H12V23z M35.5,27.5l-0.7,1.9l2.7,1.1c0.3-0.6,0.5-1.2,0.7-1.9L35.5,27.5z
	 M38.1,18.9c-0.2-0.6-0.5-1.2-0.8-1.8l-2.7,1.2l0.8,1.8L38.1,18.9z M35.3,33.9l-2.1-2.1l-1.4,1.4l2.1,2.1
	C34.4,34.8,34.8,34.4,35.3,33.9z M13.4,29.7l-0.8-1.8l-2.7,1.2c0.2,0.6,0.5,1.2,0.8,1.8L13.4,29.7z M29.7,34.6l-1.8,0.8l1.2,2.7
	c0.6-0.2,1.2-0.5,1.8-0.8L29.7,34.6z M20.5,35.5l-1.9-0.7l-1.1,2.7c0.6,0.3,1.2,0.5,1.9,0.7L20.5,35.5z M25,38.9V36h-2v2.9
	c0.3,0,0.7,0.1,1,0.1S24.7,39,25,38.9z"></path>
</svg>