<?xml version="1.0" encoding="utf-8"?>
<!-- Generator: Adobe Illustrator 16.0.0, SVG Export Plug-In . SVG Version: 6.00 Build 0)  -->
<!DOCTYPE svg PUBLIC "-//W3C//DTD SVG 1.1//EN" "http://www.w3.org/Graphics/SVG/1.1/DTD/svg11.dtd">
<svg version="1.1" id="Layer_1" xmlns="http://www.w3.org/2000/svg" xmlns:xlink="http://www.w3.org/1999/xlink" x="0px" y="0px"
	 width="1000px" height="1000px" viewBox="0 0 1000 1000" enable-background="new 0 0 1000 1000" xml:space="preserve">
<circle fill="#676465" cx="500" cy="500" r="16"/>
<circle fill="#B9BCBF" cx="500" cy="500" r="14.316"/>
<polygon fill="#878787" points="498.231,498.231 501.769,501.769 509.516,490.484 "/>
<polygon fill="#696969" points="500,500 509.516,490.484 501.769,501.769 "/>
<polygon fill="#FFFFFF" points="498.231,498.231 490.484,509.516 501.769,501.769 "/>
<polygon fill="#E5E3E4" points="500,500 490.484,509.516 501.769,501.769 "/>
<path fill="#E5E2E4" d="M494.189,488.8c0.505-0.252,1.01-0.505,1.516-0.674l1.011,2.274l-1.516,0.673L494.189,488.8z
	 M510.105,500.842h2.441c0-0.253,0.084-0.589,0.084-0.842c0-0.253,0-0.59-0.084-0.842h-2.441V500.842z M490.484,491.663l1.769,1.768
	l1.179-1.179l-1.768-1.769C491.242,490.905,490.905,491.242,490.484,491.663z M500.842,487.453
	c-0.253-0.084-0.589-0.084-0.842-0.084c-0.253,0-0.59,0-0.842,0.084v2.442h1.684V487.453z M505.39,488.631
	c-0.506-0.252-1.011-0.421-1.601-0.589l-0.926,2.358l1.6,0.589L505.39,488.631z M490.315,497.052l0.59-1.6l-2.274-0.926
	c-0.252,0.505-0.421,1.011-0.589,1.6L490.315,497.052z M489.895,499.158h-2.442c-0.084,0.252-0.084,0.589-0.084,0.842
	c0,0.252,0,0.589,0.084,0.842h2.442V499.158z M509.684,502.947l-0.589,1.6l2.273,0.927c0.253-0.506,0.421-1.011,0.59-1.601
	L509.684,502.947z M511.873,495.705c-0.168-0.505-0.421-1.011-0.673-1.516l-2.274,1.01l0.674,1.516L511.873,495.705z
	 M509.516,508.337l-1.769-1.769l-1.179,1.179l1.769,1.769C508.758,509.095,509.095,508.758,509.516,508.337z M491.073,504.8
	l-0.673-1.516l-2.274,1.011c0.168,0.505,0.421,1.01,0.674,1.516L491.073,504.8z M504.8,508.926l-1.516,0.674l1.011,2.273
	c0.505-0.168,1.01-0.421,1.516-0.673L504.8,508.926z M497.052,509.684l-1.6-0.589l-0.926,2.273c0.505,0.253,1.011,0.421,1.6,0.59
	L497.052,509.684z M500.842,512.547v-2.441h-1.684v2.441c0.252,0,0.589,0.084,0.842,0.084
	C500.252,512.631,500.589,512.631,500.842,512.547z"/>
</svg>
